<?xml version="1.0" encoding="UTF-8" standalone="no"?>
<svg xmlns:rdf="http://www.w3.org/1999/02/22-rdf-syntax-ns#" xmlns="http://www.w3.org/2000/svg" version="1.0" xmlns:cc="http://creativecommons.org/ns#" xmlns:dc="http://purl.org/dc/elements/1.1/" viewBox="0 0 329.9 347.05">
 <g transform="translate(-16.549 -4.9755)">
  <g transform="translate(1.2721 -1.9081)">
   <g>
    <path d="m62.094 15.656c0.29094 6.8502 0.28125 11.031 0.28125 18.562v99.062c0 13.456 0.16016 28.169 2.375 42.344 2.205 14.185 6.4478 27.783 14.5 39.094 10.365 14.5 23.767 25.326 39.094 33.969 15.307 8.633 32.547 15.085 50.531 20.844h0.0312c3.8314 1.3956 7.195 3.0475 11.062 4.0625 4.6069-1.3355 7.6559-2.68 11.469-4.0625h0.0312c17.807-5.7586 34.964-12.211 50.281-20.844 15.309-8.6384 28.803-19.439 39.344-33.938 7.8848-11.31 12.022-24.94 14.188-39.125 2.1755-14.175 2.3438-28.887 2.3438-42.344v-99.062c0-6.86 0.0238-11.907 0.3125-18.562-6.08 0.044-12.08 0.344-19.59 0.344h-196.34c-7.855 0-13.555-0.301-19.906-0.344zm186.84 38.875c1.8383 3.1525 3.8596 5.8882 6.0938 8.6875 0.75335 0.94591 1.5128 1.8697 2.3125 2.8438 1.2206-0.17719 2.8017-0.27086 4.4688-0.3125 1.667-0.04164 3.4201-0.03125 5-0.03125v130.91h-46.219c-4.037 0-8.3383 0.15625-12.5 0.15625-3.2594 0-6.443-0.0968-9.3125-0.40625-1.1469-0.12055-2.2435-0.27038-3.2812-0.46875-0.51906-0.0999-1.0134-0.22193-1.5-0.34375 0.6989 1.2256 1.1435 2.3535 1.4062 3.4062 0.002 0.009-0.002 0.022 0 0.0312 0.25693 1.0409 0.34375 2.0073 0.34375 2.875 0 0.41528-0.0379 0.81212-0.0937 1.1875-0.11165 0.75061-0.30956 1.4293-0.625 2.0312-1.2619 2.4092-4.0483 3.6834-7.5312 4.3125-0.87073 0.15727-1.8054 0.26055-2.75 0.34375-1.4168 0.12481-2.8965 0.1875-4.4062 0.1875-1.575 0-3.0017-0.0247-4.3125-0.0937-1.9662-0.10364-3.6679-0.28872-5.0938-0.5625-3.7863-0.72703-5.7811-2.0961-6.5938-4.25-0.003-0.009 0.003-0.0223 0-0.0312-0.19826-0.53362-0.34283-1.1167-0.40625-1.75-0.00095-0.01 0.00092-0.0215 0-0.0312-0.0312-0.32272-0.0312-0.65055-0.0312-1 0-0.51633 0.0142-1.0418 0.0625-1.5625 0.00093-0.01-0.00095-0.0213 0-0.0312 0.0503-0.53128 0.13943-1.0466 0.25-1.5938 0.21902-1.0939 0.57203-2.2432 1.0938-3.4688-0.69453 0.28629-1.4633 0.52738-2.2812 0.71875-0.40805 0.0948-0.8474 0.1762-1.2812 0.25-0.8612 0.14715-1.7749 0.26646-2.7188 0.34375-0.47623 0.038-0.97593 0.0705-1.4688 0.0937-0.9875 0.0482-1.9977 0.0625-3.0312 0.0625-1.1785 0-2.3862-0.0244-3.5938-0.0625-2.3707-0.0731-4.7305-0.20643-7-0.28125-0.0409-0.001-0.0842 0.001-0.125 0-0.0107-0.00034-0.0206 0.00034-0.0312 0-1.1538-0.0381-2.2727-0.0625-3.3438-0.0625h-47.25v-92.031c0-1.5418 0.02702-3.1102 0.0625-4.7188 0.000897-0.04118-0.000914-0.08379 0-0.125 0.10661-4.7478 0.33875-9.7486 0.4375-14.688 0.03327-1.6641 0.03428-3.3266 0.03125-4.9688-0.0045-2.4633-0.05108-4.8666-0.1875-7.2188-0.04547-0.78405-0.09166-1.5775-0.15625-2.3438-0.12918-1.5324-0.31223-3.0242-0.53125-4.4688 0.7875 0.08859 1.5855 0.13217 2.4062 0.15625 1.6414 0.04816 3.3249 0.01434 4.9688 0.0625 0.82118 0.02215 1.6475 0.06766 2.4375 0.15625 1.3978-1.7473 2.881-3.6875 4.2812-5.6562 1.0502-1.4766 2.0579-2.9672 2.9375-4.4375 0.29348-0.49054 0.58043-0.98764 0.84375-1.4688 0.78627 0.48111 1.5837 0.94954 2.4062 1.375 1.2339 0.63819 2.5089 1.2094 3.8438 1.7188 1.771 0.67583 3.6601 1.2473 5.6562 1.6875 0.01 0.0022 0.0214-0.0022 0.0312 0 1.0036 0.22059 2.023 0.40334 3.0938 0.5625 1.6061 0.23875 3.286 0.40306 5.0625 0.5 1.1843 0.06463 2.4189 0.09375 3.6875 0.09375 0.69081 0 1.4782-0.0037 2.3125-0.03125 2.5411-0.0864 5.6891-0.27126 8.9375-0.46875 2.1669-0.12891 4.3917-0.27832 6.5312-0.375 1.0693-0.04937 2.1137-0.0962 3.125-0.125 1.0116-0.0282 1.9871-0.03125 2.9062-0.03125 7.7015 0.000001 14.238 1.4821 17.906 7.1875 0.50132 0.77852 0.95337 1.6515 1.3438 2.5938 0.26025 0.62814 0.47977 1.294 0.6875 2 0.3116 1.059 0.56378 2.1918 0.75 3.4375 0.12415 0.83046 0.21603 1.7065 0.28125 2.625 0.0766-0.48142 0.16115-0.94983 0.25-1.4062 0.26654-1.3692 0.59547-2.6255 0.96875-3.7812 0.24885-0.77051 0.51816-1.5054 0.8125-2.1875 0.44151-1.0231 0.92927-1.9427 1.4688-2.7812 0.17983-0.27951 0.37218-0.55221 0.5625-0.8125 0.38064-0.52057 0.76604-0.98996 1.1875-1.4375 4.2146-4.4754 10.437-5.4375 17.875-5.4375 0.79746 0 1.5871 0.01141 2.4062 0.03125 2.4263 0.0564 4.9382 0.18359 7.5312 0.3125 1.7282 0.08859 3.4614 0.18356 5.25 0.25 1.7993 0.06509 3.6196 0.09375 5.4688 0.09375 2.5614 0 4.8242-0.0954 6.8438-0.25 0.72982-0.0565 1.4535-0.1122 2.125-0.1875 0.63378-0.07071 1.2253-0.13202 1.8125-0.21875 1.1745-0.17346 2.26-0.39146 3.2812-0.625 4.5954-1.0509 7.8756-2.685 11.812-4.6562zm26.281 9.0938c0.0747 0 0.13298 0.02246 0.21875 0.0625 0.22037 0.09201 0.45225 0.29932 0.75 0.59375 0.39883 0.39406 0.85931 0.91209 1.4062 1.4375 0.68445 0.65997 1.4983 1.3166 2.4375 1.7188 0.55866 0.23923 1.1573 0.375 1.8125 0.375 0.43804 0 0.86445-0.05834 1.3125-0.1875 1.3442-0.38749 2.7941-1.365 4.625-2.9375-0.13104 0.63431-0.24221 1.3196-0.34375 2.0625-0.19577 1.4325-0.3474 3.0426-0.46875 4.7812-0.005 0.06472 0.004 0.12244 0 0.1875-0.00074 0.01072 0.00073 0.02052 0 0.03125-0.003 0.05024 0.003 0.10582 0 0.15625-0.17921 2.6711-0.31833 5.6108-0.46875 8.5938-0.10262 2.0332-0.22174 4.0927-0.375 6.0938-0.15319 2.0017-0.33801 3.9552-0.59375 5.7812-0.31976 2.2819-0.74127 4.3696-1.3125 6.125-0.45693 1.4047-1.0112 2.5938-1.6875 3.5-0.50723 0.67947-1.0938 1.2027-1.75 1.5312-0.25726 0.0969-0.54862 0.18505-0.84375 0.25-0.46712 0.10281-0.96086 0.15462-1.5 0.1875-0.29326 0.0179-0.59808 0.0312-0.90625 0.0312-0.66473 0-1.3618-0.0365-2.0625-0.0937-2.1021-0.17186-4.2614-0.53746-5.875-0.71875 0.00001-0.34453-0.34375-1.7691-0.34375-2.8125v-5.5938-2.4688c0.82907 0.14656 1.5608 0.21875 2.1875 0.21875 1.6751 0.000001 2.6868-0.52946 3.3125-1.5 0.007-0.01132 0.0242-0.0198 0.0312-0.03125 0.26305-0.41902 0.44488-0.91834 0.59375-1.5 0.002-0.0091-0.002-0.0221 0-0.03125 0.29962-1.1881 0.41682-2.692 0.53125-4.5 0.25893-5.2602-0.083-10.696-0.5625-15.75-0.15842-1.6833-0.32527-3.3025-0.5-4.875 0-0.17719 0.0131-0.36461 0.0625-0.5s0.13531-0.21875 0.3125-0.21875zm-190.77 2.437c0 0.70137-0.0293 1.6084-0.09375 2.6875-0.000746 0.01233 0.000752 0.01887 0 0.03125-0.06427 1.0726-0.16479 2.3005-0.25 3.625-0.13104 2.0017-0.25517 4.2285-0.3125 6.4688-0.0188 0.74707-0.03125 1.5068-0.03125 2.25 0 5.211 0.54346 10.125 1.8438 11.75 0.0048 0.0061-0.0048 0.02521 0 0.03125 0.18147 0.22216 0.38197 0.3826 0.59375 0.46875 0.08859 0.04307 0.18378 0.09205 0.3125 0.125 0.01009 0.0027 0.02093-0.0026 0.03125 0 0.01838 0.0045 0.04342-0.0043 0.0625 0 0.35778 0.08138 0.83555 0.15699 1.375 0.1875 0.04506 0.0026 0.07911-0.0024 0.125 0 0.82629 0.04139 1.7903 0.03125 2.6562 0.03125-0.17719 0.17719-0.1693 0.45721-0.125 0.8125 0.02215 0.17534 0.03481 0.34332 0.0625 0.5625 0.02969 0.23006 0.0625 0.47297 0.0625 0.75-0.05907 0.0098-0.12844 0.02141-0.1875 0.03125v5.2188c0.05906-0.007 0.12844-0.0247 0.1875-0.0312-0.35438 0.69891-0.34375 2.468-0.34375 2.8125-0.53156 0.0673-1.1097 0.149-1.6875 0.25-1.7318 0.30064-3.664 0.6875-5.625 0.6875-0.82797 0-1.6633-0.0514-2.5-0.21875-0.53783-0.10769-1.0383-0.31777-1.5-0.59375-0.007-0.004-0.02431 0.004-0.03125 0-2.8143-1.7035-4.2474-6.3647-5.0625-11.969-0.26977-1.8547-0.46861-3.8282-0.625-5.8125-0.39308-4.9874-0.52153-10.15-0.78125-14.312-0.10389-1.6651-0.23029-3.1677-0.40625-4.4375 2.1066 1.0533 4.5709 2.4688 5.9688 2.4688 0.34945 0 0.79324-0.15462 1.3125-0.40625 0.25875-0.12704 0.52998-0.26778 0.8125-0.4375 0.29528-0.17395 0.56669-0.35696 0.875-0.5625 1.1766-0.79402 2.4052-1.7698 3.2812-2.4688zm0.34375 70.031c-0.2584 2.0967-0.69353 6.7355-0.90625 11-0.06976 1.4206-0.125 2.8057-0.125 4.0312 0 3.5044 0.35297 8.7486 1.4062 10.156 0.08723 0.13043 0.18571 0.22359 0.3125 0.3125 0.12679 0.0889 0.27564 0.16542 0.4375 0.21875 0.16186 0.0533 0.33883 0.10131 0.53125 0.125 0.20271 0.0274 0.39496 0.0312 0.625 0.0312 0.875-0.00001 1.9467-0.16656 3-0.34375l0.6875 2.4375c-0.06453 0.0241-0.12188 0.0708-0.1875 0.0937l-0.875 5.875 0.71875 3.5c-2.2061 0.16953-4.0895 0.25-5.6875 0.25-1.8883 0-3.3727-0.12094-4.5625-0.375-0.39515-0.0825-0.73174-0.16999-1.0625-0.28125-0.99145-0.33576-1.6999-0.80258-2.2188-1.4062-0.17912-0.20563-0.33274-0.4178-0.46875-0.65625-0.14934-0.23451-0.30081-0.53957-0.4375-0.90625-0.003-0.008 0.003-0.0231 0-0.0312-0.2773-0.75214-0.55227-1.772-0.78125-2.9688-0.0018-0.009 0.0018-0.0219 0-0.0312-0.57511-3.0197-0.98433-7.2298-1.3125-11.562-0.000781-0.0104 0.00078-0.0209 0-0.0312-0.52555-6.9501-0.79648-14.194-0.96875-17.344 0.21779 0.13166 0.4143 0.27937 0.625 0.4375 1.06 0.79331 2.0495 1.8374 3.4375 2.375 0.0087 0.003 0.02249-0.003 0.03125 0 0.26764 0.10196 0.54474 0.19241 0.84375 0.25 0.01018 0.002 0.02103-0.002 0.03125 0 0.30075 0.0561 0.63012 0.0937 0.96875 0.0937 0.32854 0 0.6946-0.1459 1.0625-0.375 0.23967-0.14956 0.46884-0.34461 0.71875-0.5625 0.13893-0.12021 0.26529-0.2391 0.40625-0.375 0.25421-0.24509 0.5244-0.50312 0.78125-0.78125 0.0052-0.006-0.0052-0.0256 0-0.0312 0.52418-0.56848 1.0599-1.1614 1.5625-1.7188 0.25719-0.28579 0.50685-0.53753 0.75-0.78125 0.23134-0.23189 0.44268-0.45462 0.65625-0.625zm189.72 2.44c0.34946 0.35191 0.7657 0.84808 1.2188 1.4062 0.6806 0.83818 1.4575 1.8117 2.2188 2.5625 0.37997 0.37482 0.72804 0.67746 1.0938 0.90625 0.007 0.004 0.0242-0.004 0.0312 0 0.23588 0.14526 0.46564 0.28855 0.6875 0.34375 0.1235 0.0328 0.22602 0.0312 0.34375 0.0312 1.9579 0 3.112-0.83087 4.125-1.7812 0.20738-0.19672 0.4231-0.39155 0.625-0.59375 0.38829-0.38886 0.78646-0.78014 1.2188-1.125-0.0886 1.575-0.19207 4.2048-0.3125 7.3438-0.00051 0.0133 0.00051 0.018 0 0.0312-0.18153 4.7081-0.43561 10.502-0.875 15.469-0.43939 4.9669-1.0496 9.0921-1.9688 10.406-0.16188 0.22641-0.33169 0.42316-0.53125 0.625-0.20428 0.20812-0.40794 0.41294-0.65625 0.59375-0.006 0.005-0.025-0.005-0.0312 0-0.47825 0.34493-1.0561 0.63623-1.7188 0.875-0.67163 0.2435-1.4518 0.43648-2.3438 0.5625-0.89197 0.12602-1.888 0.1875-3.0312 0.1875-1.6155 0-3.4956-0.13391-5.6875-0.40625l0.6875-3.125-1.0312-5.9688 0.6875-2.0938c0.70438 0.11812 1.4128 0.1875 2.0625 0.1875 0.31301 0 0.62367-0.0216 0.90625-0.0625 0.29119-0.044 0.56675-0.12106 0.8125-0.21875 0.11402-0.0454 0.24156-0.0978 0.34375-0.15625 0.1091-0.0641 0.21879-0.13818 0.3125-0.21875 0.0884-0.0761 0.17668-0.18941 0.25-0.28125 0.0767-0.0983 0.16064-0.19533 0.21875-0.3125 0.0658-0.0874 0.12706-0.19882 0.1875-0.3125 0.18115-0.34089 0.33344-0.77529 0.46875-1.3125 0.18121-0.71697 0.32755-1.5896 0.4375-2.5312 0.21779-1.8814 0.31249-4.0756 0.3125-6 0-1.214-0.0533-2.5919-0.125-4-0.00052-0.0103 0.00052-0.0209 0-0.0312-0.0722-1.409-0.17094-2.8614-0.28125-4.25-0.00086-0.0111 0.00087-0.0201 0-0.0312-0.22256-2.7956-0.48398-5.316-0.65625-6.7188z" fill="#00356b"/>
    <path d="m299.35 14.276c-0.35438 7.3533-0.35438 12.6-0.35438 19.953v99.048c0 26.952-0.6989 59.151-16.793 82.254-21.351 29.393-54.603 43.746-90.307 55.292-3.8489 1.3978-6.9989 2.8055-11.901 4.2033-4.1934-1.0533-7.6978-2.8055-11.547-4.2033-36.05-11.55-69.302-25.91-90.298-55.3-16.449-23.1-17.148-55.3-17.148-82.25v-99.048c0-8.0522 0-12.255-0.35438-19.953 6.9989 0 12.954 0.35438 21.351 0.35438h196.35c8.0423 0 14.342-0.35438 20.997-0.35438" fill="#00356b"/>
    <path d="m180 352.02c-53.895 0-93.801-9.7945-138.94-29.393 4.9022-9.8044 9.0956-36.402 9.0956-50.055 32.553 19.953 82.254 30.801 129.85 30.801 48.303 0 97.66-10.848 130.2-30.801 0 13.653 4.2033 40.251 9.0956 50.055-45.143 19.599-85.04 29.393-139.3 29.393m-132.3-32.19c38.489 17.857 81.9 27.297 132.64 27.297 50.754-0.34453 93.801-9.4402 132.3-27.297-2.1634-5.5617-6.5067-25.308-6.533-36.119-0.003-1.435 0.0689-2.7114 0.23296-3.7778-32.543 18.9-83.997 28.695-126.35 28.695-42.348 0-93.447-9.7945-125.99-28.695 0.16406 1.0664 0.24062 2.3428 0.245 3.7778 0.03281 10.811-4.0775 30.557-6.545 36.119m134.75 18.546h-3.5044c-2.4511-6.2902-5.6011-14.342-8.7511-22.05l5.2467 0.35437c1.4077 4.9022 3.8489 11.202 5.6011 16.104 2.0967-4.2033 4.5478-10.503 5.6011-15.75l4.9022-0.35438c-3.15 6.6544-6.3 13.998-9.0956 21.696m12.945-0.34453v-0.33031-0.3336c-0.001-6.9431-0.0219-16.292-0.69891-21.042 3.4945 0 9.0956-0.68906 12.945-1.0434l1.7522 4.2033-0.6989 0.34453c-2.7956-1.7522-7.3533-1.0434-9.0956-1.3978 0 2.4511-0.35437 3.8489-0.35437 6.6445l7.3533-0.68906 0.34453 3.4945c-1.3978-0.35437-4.9022-0.35437-7.3434-0.35437 0 2.4511 0.34453 5.2566 0.69891 7.7077 3.4945-0.35438 8.0522-1.4077 10.493-2.8055l0.70875 0.35437-1.4077 4.5478c-5.2467 0.35438-8.3967 0-14.697 0.69891m-41.649-0.34453-5.2566-0.35437c1.4076-6.6544 2.1066-12.255 2.1066-19.254-0.75141-0.0733-1.4208-0.11594-2.0355-0.11594-2.2509 0-3.7439 0.56766-5.6623 2.2225l-0.35438-0.35437c0.35438-1.0434 1.7522-4.1934 2.0967-5.2467 5.6011 1.0533 11.202 1.7423 17.148 1.7423l1.0533 5.2566-0.69891 0.34453c-1.0533-1.3978-4.2033-3.4945-6.9989-3.8489-0.30734 4.0589-1.4569 11.717-1.4547 17.551 0 0.7175 0.0186 1.4055 0.0569 2.0573m62.301-0.70875c0-6.3-1.4077-15.051-2.0967-22.05 3.4945-0.34453 5.9456-1.3978 9.0956-1.3978 5.2467 0 6.9989 2.7956 6.9989 4.9022 0 3.4945-1.0533 4.5478-3.15 6.3 3.15 3.8489 5.9456 6.3 10.503 9.0956v0.69891c-0.72078 0.0667-1.3967 0.0984-2.0366 0.0984-6.1994 0-8.7938-3.0636-11.971-8.1408l-3.8489 0.34453c0.35438 3.5044 0.35438 3.8489 1.4077 9.45l-4.9022 0.69891m2.4412-20.652 0.70875 8.062c3.8489-0.35437 6.3-1.4076 6.3-4.5576 0-1.7522-1.0533-3.5044-4.2033-3.5044h-2.8055m-79.793 19.254c-5.2467-0.69891-8.4066-1.3978-14.697-2.0967 1.3978-6.9989 3.4945-17.158 3.8489-21.351 3.4945 0.6989 8.0423 1.3978 11.891 2.0967l0.70875 4.9022h-0.70875c-1.0434-2.0967-6.2902-3.4945-8.0424-3.8489-0.6989 2.0967-1.0533 4.2033-1.4076 6.9989l7.0088 0.35438-0.35438 3.8489c-1.3978-0.70875-4.5478-1.4077-6.9989-1.7522-0.34454 2.4511-0.69891 4.5478-1.0533 6.9989 1.7467 0.1761 4.013 0.3511 6.1513 0.3511 2.1525 0 4.1759-0.17719 5.4053-0.70547l0.34453 0.35437-2.0967 3.8489m101.5-2.0967c-1.0434-6.6544-2.4511-15.051-4.1934-22.05l4.8924-1.0533c0.35437 5.9456 2.4511 16.449 4.2033 22.05l-4.9022 1.0533m-128.45-2.4511-4.9022-1.0533c-0.34453-2.0967-2.0967-7.3434-2.7956-9.7945l-7.3533 6.9989-3.8489-1.4076c3.15-2.4412 6.6445-5.5912 9.8044-8.0424-1.7522-5.6011-2.4511-8.0522-3.8489-11.547l5.5913 1.7423c0.35437 2.1066 1.4076 5.6011 2.1066 8.0522l6.9989-6.3 3.4945 0.6989c-2.7956 2.0967-6.6445 5.6011-9.4402 8.0522 2.0967 6.6445 3.15 9.0956 4.1934 12.6m144.9-1.3978c-1.3978-6.6544-2.4511-11.901-4.5478-18.9-3.4945 0.69891-4.5478 2.0967-6.3 4.5478h-0.69891c0.34453-2.4511 0.34453-4.5478 0.69891-5.6011 5.2467-0.69891 11.202-2.0967 16.449-3.8489 0.69891 1.3978 1.7522 3.15 2.8055 4.5478l-0.70875 0.6989c-1.2053-0.60265-3.9692-1.4689-6.5067-1.4689-0.40468 0-0.805 0.0219-1.1911 0.0711 1.0533 4.9022 2.4511 12.954 4.5577 18.555l-4.5577 1.3978m10.503-2.8055c1.3978-8.0423 2.4511-14.697 3.15-23.802l3.8489-1.0434c4.2033 5.6011 9.45 12.945 13.643 17.847l-4.1934 1.7522c-1.7522-3.15-4.1934-6.3-4.1934-6.3s-5.6011 1.7522-7.7077 2.4511c-0.34453 2.4511-0.6989 5.6011-0.6989 7.6978l-3.8489 1.3978m4.9022-12.246 5.6011-1.7522-4.9022-5.9555-0.6989 7.7076m-188.66 9.0956c-2.7956 0-9.0956-1.7522-9.0956-6.9989 0-4.9022 3.4945-12.246 4.5478-16.803l4.5478 1.7522c-1.0533 2.8055-4.5478 12.954-4.5478 15.051 0 3.5044 3.15 4.2033 4.9022 4.2033 2.7956 0 4.5478-4.5577 5.9456-9.45 0.69891-2.4511 1.3978-5.2467 2.0967-6.9989l3.5044 1.0434c-0.69891 2.4511-1.3978 5.2566-2.4511 8.0522-1.7522 5.2566-3.4945 10.149-9.45 10.149m208.95-5.2467h-2.0967l-2.8055-5.6011h0.34453c2.1066 1.0533 5.6011 2.8055 8.4066 2.8055 1.7522 0 3.15-1.0533 3.15-3.5044 0-5.9456-13.998-1.3978-13.998-9.7945 0-6.6544 6.6445-8.4066 11.547-8.4066l2.4511 5.2467-0.69891 0.6989c-1.4077-1.3978-3.8489-3.1402-6.3-3.1402-2.0967 0-3.5044 1.0434-3.5044 3.4945 0 5.9555 13.998 0.6989 13.998 10.503 0 4.5478-5.6011 7.6978-10.493 7.6978m-223.65 0c-4.9022-2.1066-5.6011-2.7956-11.547-4.2033 3.15-7.3533 4.5478-13.998 5.9456-20.997l4.9022 2.0967c-2.4511 5.9555-4.2033 10.858-5.6011 17.857 2.8897 0.86078 5.0564 1.4864 7.3008 1.4864 0.47688 0 0.95812-0.0284 1.4503-0.0886l0.34453 0.34454c-0.68906 1.0533-2.4511 2.8055-2.7956 3.5044m-26.911-12.98c-8.0522-2.4511-17.847-8.7412-25.2-10.848v-1.0533c3.15-2.0967 16.104-15.041 16.803-17.847-1.3978-10.149-5.2566-25.545-6.9989-30.801l0.69891-0.34453c13.998 10.848 34.296 20.652 51.443 27.996l-0.34453 5.6011c-22.749-9.7945-33.607-16.803-44.1-22.749 2.0967 5.9456 3.15 15.75 4.9022 21.351-5.2566 4.5478-8.7511 11.547-14.352 15.75 5.6011 1.3978 11.901 5.5912 17.847 7.6978l-0.69891 5.2467m276.5-0.69891-1.0533-5.2467c5.9555-2.0967 12.954-5.9555 18.201-8.0522-5.2467-4.5478-9.7945-10.149-14.697-15.75 1.3978-5.6011 3.15-15.396 5.2467-21.696-10.848 5.6011-21.705 12.945-44.799 23.448v-5.9555c12.954-5.2467 40.251-19.245 51.453-27.996l1.0434 0.35437c-1.7522 5.2467-5.6011 20.652-6.9989 30.092 0.6989 3.15 12.255 15.405 16.803 18.201v1.0533c-7.3533 1.7522-16.803 9.7945-25.2 11.547" fill="#222"/>
    <path d="m180 275.03c-4.1934-1.0533-7.6978-2.8055-11.547-4.2033-36.05-11.55-69.302-25.91-90.298-55.3-16.449-23.1-17.148-55.3-17.148-82.25v-99.048-0.37516-0.36859-0.36422-0.35875c-0.0011-7.1247-0.02188-11.27-0.35438-18.487 6.9989 0 12.954 0.35438 21.351 0.35438h196.35c8.0423 0 14.342-0.35438 20.997-0.35438-0.35438 7.3533-0.35438 12.6-0.35438 19.953v99.048c0 26.952-0.6989 59.151-16.793 82.254-21.351 29.393-54.603 43.746-90.307 55.292-3.8489 1.3978-6.9989 2.8055-11.901 4.2033m-117.91-259.38c0.29094 6.8502 0.29094 11.049 0.29094 18.581v99.048c0 13.456 0.17719 28.183 2.392 42.358 2.205 14.185 6.4477 27.789 14.5 39.099 10.365 14.5 23.743 25.308 39.07 33.951 15.307 8.633 32.553 15.081 50.538 20.839l0.0295 0.01 0.0197 0.01c3.8314 1.3956 7.1903 3.0494 11.058 4.0644 4.6069-1.3355 7.642-2.6819 11.455-4.0644l0.0295-0.01 0.0197-0.01c17.807-5.7586 34.965-12.206 50.282-20.839 15.309-8.6384 28.779-19.44 39.319-33.939l-0.003-0.002c7.8848-11.31 12.039-24.924 14.205-39.109 2.1755-14.175 2.3527-28.901 2.3527-42.358v-99.048c0-6.86 0-11.924 0.28875-18.58-6.0911 0.04375-12.065 0.34891-19.573 0.34891h-196.35c-7.8553 0-13.568-0.30734-19.919-0.35" fill="#00356b"/>
    <path d="m99.847 186.83-0.69891-0.35438c1.0533-4.8923 1.3978-10.493 1.3978-16.449 0-7.6978-0.6989-15.396-0.6989-21.696v-74.547c5.9555-2.8055 7.7077-7.0088 10.149-11.202-0.3489 3.8489-0.43531 8.4853-0.43422 13.209 0.001 4.7239 0.0897 9.5353 0.0897 13.733v57.753c0 4.9405 0.315 10.667 0.31063 16.124-0.002 2.6644-0.0809 5.2653-0.31063 7.6781-0.35437 1.7522-8.4066 15.396-9.8044 15.75m78.405 8.0522c-3.15-0.69891-5.9555-1.7522-8.0522-2.8055-1.0533-0.69891-2.4511-2.7956-3.5044-2.7956-0.34453 0-2.4412 1.0434-3.15 1.0434-4.5478 0.70875-9.45 1.0533-14.697 1.0533-10.149 0-20.652-1.0533-30.447-1.0533-1.5586 0-3.138-0.0208-4.6977-0.0208-4.7447 0-9.2958 0.19469-12.46 1.773 4.2033-6.3 8.7511-12.6 12.255-19.943 5.9456 2.4511 9.7945 4.5478 22.05 4.5478 5.9456 0 12.246-0.34454 17.847-0.34454 6.3 0 11.901 0.68907 16.104 2.7956 5.6011 3.15 8.3967 8.3967 8.7511 15.75m2.7956 0c0.35438-6.3 3.15-12.255 7.6978-15.051 4.2481-3.1117 10.563-3.7734 17.552-3.7734 2.5824 0 5.2566 0.0897 7.9527 0.18047 2.6884 0.0897 5.3988 0.17937 8.0598 0.17937 2.9006 0 5.7422-0.10719 8.4383-0.43531 6.3-0.35438 10.503-2.8055 15.051-4.5478 3.5044 6.6445 8.0522 12.6 12.255 18.89-2.8055-0.68906-6.6544-0.68906-10.503-0.68906-6.3 0-17.502 0.68906-23.802 0.68906h-17.502c-0.37625 0.0263-0.75687 0.0372-1.1397 0.0372-1.8025 0-3.6662-0.25812-5.4359-0.50969-1.7576-0.25703-3.4311-0.51843-4.8716-0.51843-0.81922 0-1.5641 0.0842-2.2061 0.30187-1.0434 0-2.4412 1.7423-3.4945 2.4412-2.4511 1.4077-4.9022 2.1066-8.0522 2.8055m79.803-8.7511c-1.7522-2.0967-3.15-3.8489-4.9022-6.3-1.7522-2.0967-5.2467-5.9555-5.6011-8.7511-0.45828-2.2969-0.61688-4.7819-0.62125-7.3314-0.01-5.2216 0.62125-10.715 0.62125-15.418v-56.001c0-3.9791 0.058-8.19 0.0569-12.399-0.001-6.1512-0.13015-12.297-0.75578-17.703 2.1066 4.2033 5.6011 9.1055 10.149 10.848v73.858c0 5.5125-0.13344 11.426-0.13781 17.332-0.004 7.5928 0.20562 15.171 1.1911 21.866" fill="#fff000"/>
   </g>
   <g fill="#222">
    <path d="m180 282.38c-1.388-0.70875-4.5478-1.7522-5.6011-2.1066-44.1-15.041-77.697-27.297-101.84-60.893-15.061-21.35-18.211-47.6-18.211-81.2v-130.2h251.65v130.2c0 33.597-3.4945 59.85-18.546 81.201-23.802 33.597-57.399 45.852-101.85 60.893-1.0434 0.35437-3.8489 1.3978-5.6011 2.1066m-11.96-10.248c3.733 1.3562 7.2745 3.1259 11.635 4.2241l0.35437 0.0886 0.35438-0.0984c4.9908-1.4273 8.1998-2.8645 11.99-4.2328l-0.002-0.005c17.88-5.775 35.177-12.277 50.737-21.04 15.573-8.7806 29.393-19.845 40.212-34.739l0.01-0.01v-0.01c8.2195-11.793 12.462-25.83 14.667-40.261s2.3822-29.285 2.3822-42.771v-99.048c0-7.3533 0-12.57 0.34453-19.884l-1.3683-0.06453v-1.3727c-6.7036 0-12.984 0.35438-20.997 0.35438h-196.35c-8.3573 0-14.293-0.35438-21.341-0.35438h-1.4372l0.06891 1.4372c0.34453 7.6683 0.34453 11.832 0.34453 19.884v99.048c0 13.486 0.17719 28.34 2.4216 42.781 2.2542 14.431 6.5855 28.468 14.982 40.261 10.641 14.903 24.373 25.968 39.946 34.748 15.573 8.7708 32.986 15.278 51.05 21.066v-0.001"/>
    <path d="m180.02 276.44-0.35438-0.0889c-4.3608-1.0981-7.9023-2.8678-11.635-4.2241v0.001c-18.07-5.79-35.48-12.29-51.05-21.06-15.58-8.78-29.31-19.85-39.951-34.75-8.396-11.79-12.728-25.83-14.982-40.26-2.244-14.44-2.421-29.3-2.421-42.78v-99.048c0-8.0522 0-12.216-0.34453-19.884l-0.06891-1.4372h1.4372c7.0481 0 12.984 0.35438 21.341 0.35438h196.35c8.0128 0 14.293-0.35438 20.997-0.35438v1.3683c-6.6544 0-12.954 0.35438-20.997 0.35438h-196.35c-8.3967 0-14.352-0.35438-21.351-0.35438 0.3325 7.2166 0.35328 11.362 0.35438 18.487v0.35875 0.36422 0.36859 0.37516 99.048c0 26.952 0.69891 59.151 17.148 82.254 20.997 29.393 54.249 43.746 90.297 55.292 3.8489 1.3978 7.3533 3.15 11.547 4.2033 4.9022-1.3978 8.0522-2.8055 11.901-4.2033 35.703-11.547 68.955-25.899 90.307-55.292 16.095-23.103 16.793-55.302 16.793-82.254v-99.048c0-7.3533 0-12.6 0.35438-19.953v0.0044l1.3683 0.06453c-0.34453 7.3139-0.34453 12.531-0.34453 19.884v99.048c0 13.486-0.17719 28.34-2.3822 42.771s-6.4477 28.468-14.667 40.261v0.01l-0.01 0.01c-10.818 14.894-24.639 25.958-40.212 34.739-15.56 8.7631-32.857 15.265-50.737 21.04l0.002 0.005c-3.7898 1.3683-6.9989 2.8055-11.99 4.2328l-0.35438 0.0984" stroke="#222"/>
    <g>
     <path d="m61.004 133.28v-99.048 99.048m0-99.423v-0.36859 0.36859m0-0.73281v-0.35875 0.35875m217.35-18.491h-196.35c-8.3967 0-14.352-0.35438-21.351-0.35438 6.9989 0 12.954 0.35438 21.351 0.35438h196.35c8.0423 0 14.342-0.35438 20.997-0.35438-6.6544 0-12.954 0.35438-20.997 0.35438"/>
     <path d="m180.35 209.93c-12.6 0-16.449-2.1066-16.449-7.6978 0-2.1066 0.35438-4.2033 1.3978-6.6544-2.7781 1.1452-6.627 1.4503-10.761 1.4503-4.7141 0-9.8-0.39704-14.084-0.39704h-47.25v-92.049c0-12.255 1.3978-26.952-0.35438-38.509 3.15 0.35438 6.6445 0 9.8044 0.35438 2.7956-3.4945 5.9456-7.6978 8.0522-11.547 6.2902 3.8489 13.643 5.9456 23.792 5.9456 5.6011 0 16.449-1.0533 23.802-1.0533 11.202 0 19.953 3.1598 20.997 17.857 2.4511-15.405 11.202-17.857 23.103-17.857 6.3 0 13.299 0.70875 20.652 0.70875 13.998 0 18.9-2.4511 25.899-5.9555 2.4511 4.2033 5.2467 7.6978 8.4066 11.547 2.4412-0.35438 6.2902-0.35438 9.45-0.35438v130.91h-46.207c-4.037 0-8.3497 0.13782-12.511 0.13782-5.215 0-10.194-0.21657-14.086-1.1911 1.3978 2.4511 1.7522 4.5478 1.7522 6.3 0 6.6445-7.3533 8.0522-15.405 8.0522m-12.246-14.352c0.34453 2.0967 0.34453 4.9022 1.3978 6.3 1.3978 2.0967 6.3 3.15 10.848 3.15 3.5044 0 6.6544-0.35437 8.3967-1.3978 2.1066-1.0533 2.4511-5.6011 3.15-8.0522-3.4945 2.4511-7.3434 3.4945-12.246 3.4945-3.5044 0-8.3967-1.3978-11.547-3.4945m38.195-19.523c-6.9891 0-13.304 0.66172-17.552 3.7734-4.5478 2.7956-7.3434 8.7511-7.6978 15.051 3.15-0.69891 5.6011-1.3978 8.0522-2.8055 1.0533-0.69891 2.4511-2.4412 3.4945-2.4412 0.64204-0.21766 1.3869-0.30188 2.2061-0.30188 1.4405 0 3.1139 0.26141 4.8716 0.51844 1.7697 0.25156 3.6334 0.50969 5.4359 0.50969 0.38281 0 0.76344-0.0109 1.1397-0.0372h17.502c6.3 0 17.502-0.68906 23.802-0.68906 3.8489 0 7.6978 0 10.503 0.68906-4.2033-6.2902-8.7511-12.246-12.255-18.89-4.5478 1.7424-8.7511 4.1934-15.051 4.5478-2.6961 0.32812-5.5377 0.43531-8.4383 0.43531-2.6611 0-5.3714-0.0897-8.0598-0.17938-2.6961-0.0908-5.3703-0.18047-7.9526-0.18047m-28.046 18.825c-0.35437-7.3533-3.15-12.6-8.7511-15.75-4.2033-2.1066-9.8044-2.7956-16.104-2.7956-5.6011 0-11.901 0.34453-17.847 0.34453-12.255 0-16.104-2.0967-22.05-4.5478-3.5044 7.3434-8.0522 13.643-12.255 19.943 3.1642-1.5783 7.7153-1.773 12.46-1.773 1.5597 0 3.1391 0.0208 4.6977 0.0208 9.7945 0 20.298 1.0533 30.447 1.0533 5.2467 0 10.149-0.34453 14.697-1.0533 0.70875 0 2.8055-1.0434 3.15-1.0434 1.0533 0 2.4511 2.0967 3.5044 2.7956 2.0967 1.0533 4.9022 2.1066 8.0522 2.8055m-79.104-8.4066 0.69891 0.35438c1.3978-0.35438 9.45-13.998 9.8044-15.75 0.22968-2.4128 0.30843-5.0138 0.31062-7.6781 0.004-5.4567-0.31062-11.184-0.31062-16.124v-57.753c0-4.1978-0.0886-9.0092-0.0897-13.733-0.001-4.7239 0.0853-9.3603 0.43422-13.209-2.4412 4.1934-4.1934 8.3967-10.149 11.202v74.547c0 6.3 0.69891 13.998 0.69891 21.696 0 5.9555-0.34453 11.557-1.3978 16.449m161.7-0.34453c-0.98547-6.6948-1.1955-14.273-1.1911-21.866 0.004-5.9052 0.13782-11.819 0.13782-17.332v-73.858c-4.5478-1.7423-8.0424-6.6445-10.149-10.848 0.62562 5.4064 0.75469 11.552 0.75578 17.703 0.001 4.2088-0.0569 8.4197-0.0569 12.399v56.001c0 4.702-0.6311 10.196-0.62125 15.418 0.004 2.5495 0.16296 5.0345 0.62125 7.3314 0.35437 2.7956 3.8489 6.6544 5.6011 8.7511 1.7522 2.4511 3.15 4.2033 4.9022 6.3m-80.502-64.053c0 20.652 0.69891 41.649 0.69891 61.957 5.8198-11.022 17.692-11.55 30.705-11.55 0.67812 0 1.3617 0.002 2.0453 0.003 0.55125 0.001 1.1036 0.001 1.657 0.001 7.7645 0 15.76-0.13672 22.992-2.462 2.4511-0.69891 6.3098-1.3978 7.6978-3.4945 0.64204-1.0675 0.76454-7.0744 0.76235-12.633-0.001-3.5623-0.0536-6.942-0.0536-8.7183v-85.404h-1.0533c-4.9022 2.8055-11.202 4.2033-18.9 4.2033-6.3 0-13.299-0.69891-20.652-0.69891-6.9989 0-12.945 0.34453-16.793 2.7956-5.2566 3.8489-7.7077 9.1055-8.0522 18.9-0.69891 11.901-1.0533 24.501-1.0533 37.101m-27.651 50.055c12.255 0 21.351 2.7956 25.554 11.547v-74.202c0-5.5497 0.31172-11.833 0.30953-17.819-0.001-4.9602-0.21875-9.7158-1.0084-13.681-1.0533-4.1934-3.1598-8.3967-5.9555-10.503-4.2033-3.4945-10.503-4.1934-17.148-4.1934-7.6978 0-12.954 1.0533-23.802 1.0533-8.7511 0-12.246-1.7522-17.502-4.2033v85.05c0 2.8066-0.53266 9.3483-0.52828 14.605 0.002 3.2605 0.21218 6.0266 0.88265 7.1006 2.0967 4.1934 15.051 5.9456 25.2 5.9456 5.6011 0 10.149-0.69891 13.998-0.69891m121.9 4.2514c-1.6155 0-3.4989-0.13016-5.6908-0.4025l0.69891-3.15 2.1262 1.5947 6.3-0.35437 2.52-1.1025 1.5061-4.3411 0.10829-1.4077-13.614-0.33469 0.69891-2.1066c0.70437 0.11812 1.4066 0.19687 2.0562 0.19687 1.295 0 2.3811-0.31281 2.8459-1.2502 1.0533-1.3978 1.3978-6.3 1.3978-10.149 0-4.8923-0.69891-12.246-1.0434-15.051 1.3978 1.4076 3.8489 5.2566 5.6011 5.2566 3.15 0 4.1934-2.1066 5.9456-3.5044-0.35438 6.3-0.69891 29.748-3.15 33.252-1.295 1.8112-3.7341 2.8536-8.307 2.8536m2.007-11.605c0.87609 0.34891 1.8386 0.5239 2.7562 0.5239 0.91765 0 1.7916-0.17499 2.4905-0.5239 1.0533-5.9555 1.4076-13.299 2.1066-19.599-2.1066 1.3978-2.8055 2.4511-3.5044 2.4511s-1.3978-1.0533-2.7956-2.7956c-0.35438 5.9456-0.35438 13.643-1.0533 19.943m-191.89 9.0081c-4.9908 0-7.2581-0.85203-8.3169-2.7081-2.4511-3.8489-3.15-26.598-3.4945-32.898 1.7423 1.0533 3.15 3.15 5.9456 3.15 1.7522 0 4.1934-3.8489 5.9456-5.2467-0.34453 2.7956-1.0434 10.139-1.0434 15.041 0 3.5044 0.34453 8.7511 1.3978 10.159 0.34891 0.52172 1.0489 0.69672 1.9228 0.69672 0.875 0 1.9261-0.175 2.9794-0.35219l0.69891 2.4511c-0.06453 0.0241-0.13016 0.0459-0.19578 0.0689l0.01859-0.12797-5.9752 0.72844-6.7528 0.25594-0.4725 0.46265-0.21656 0.0886-0.16734 3.0713 3.1205 2.2739 8.8889-0.12797 0.69891-0.74812 0.69891 3.5044c-2.2061 0.16953-4.083 0.25703-5.6809 0.25703m-9.3702-31.412c0.70875 6.6544 1.0533 14.008 1.7522 19.609 0.69891 0.34891 1.575 0.52391 2.4938 0.52391 0.91984 0 1.8812-0.175 2.753-0.52391-0.34453-6.3-0.34453-13.653-0.69891-19.953-1.7423 2.0967-2.0967 3.15-3.15 3.15-0.69891 0-1.3978-1.0533-3.15-2.8055m7.7602-37.556c-0.82797 0-1.6669-0.0667-2.5036-0.23406-8.7511-1.7522-6.9989-26.952-8.4066-37.111 2.1066 1.0533 4.5577 2.4511 5.9555 2.4511s4.5478-2.4511 6.3-3.8489c0 2.8055-0.69891 9.1055-0.69891 15.051 0 5.9555 0.69891 11.547 2.4412 12.255 0.70875 0.34453 2.8055 0.34453 4.5577 0.34453-0.35438 0.35438 0 1.0533 0 2.1066-0.05906 0.0098-0.11812 0.01859-0.17719 0.02844v-0.37297l-3.5733 0.12797-8.3573 0.61031h-1.4273l-0.315 1.3289-0.19688 1.8309 1.1222 0.71859 1.8309 0.91547 2.648 0.91547 8.2688-0.71859v-0.11922c0.05906-0.007 0.11812-0.012 0.17719-0.0186-0.35438 0.69891-0.35438 2.4511-0.35438 2.7956-2.1262 0.26906-4.6616 0.94281-7.2909 0.94281m-7.754-33.146c1.0533 7.3533 0.70875 15.75 1.4077 22.749 1.7423 0 3.8489 0 5.2467-0.34453 0-1.4077-0.35438-3.15-0.35438-3.8489v-18.9c-1.7423 1.3978-2.0967 2.7956-3.15 2.7956-0.34453 0-1.0533-1.0533-3.15-2.4511m202.19 32.306c-2.6589 0-5.7903-0.56875-7.9417-0.81047 0-0.34453-0.35437-1.7522-0.35437-2.7956l2.2247 0.75797 4.4888 0.50203 3.9867-0.55125 2.1656-1.6144 1.0041-3.1303 0.0492-1.0041-13.919-0.56109v-2.4511c0.82906 0.14656 1.5488 0.21875 2.1755 0.21875 3.8762 0 4.1738-2.7508 4.4789-7.572 0.34453-6.9989-0.35437-14.352-1.0533-20.642 0-0.35438 0-0.70875 0.35437-0.70875 1.0434 0 3.15 4.2033 6.6445 4.2033 1.7522 0 3.5044-1.0533 5.9456-3.15-2.0967 10.149 0 35.349-6.9989 38.853-0.88593 0.33359-2.018 0.45609-3.2506 0.45609m0.11047-11.314c1.0248 0.51953 2.0497 0.84328 3.4902 0.84328 0.5239 0 1.1025-0.04266 1.7566-0.13453 1.0533-6.6544 0.6989-16.104 1.0533-23.103-1.4077 1.3978-2.1066 2.0967-2.8055 2.0967-1.0434-0.34453-1.7423-1.0434-3.15-2.7956 0.14437 3.127 0.22969 6.37 0.23297 9.5867 0.005 4.7031-0.16297 9.3516-0.5775 13.507m-5.9259 81.752-2.1262-1.5947c2.3111 0.2461 4.1355 0.37625 5.588 0.37625 4.7086 0 5.5081-1.3672 6.3131-4.5795l-0.35437-0.6989c-1.6264 0-3.1741 0.0383-4.6452 0.0383-2.963 0-5.6131-0.15422-7.9548-1.0817l13.614 0.33468-0.10828 1.4077-1.5061 4.3411-2.52 1.1025-6.3 0.35438m4.2328-72.785-4.4888-0.50203-2.2247-0.75797c2.0016 0.16406 4.6353 0.56656 6.9978 0.56656 2.5998 0 4.8694-0.48781 5.6022-2.3187 0.35438-0.69891 0.35438-2.1066 0.35438-2.4511-4.9022 0-9.45-0.34453-12.954-1.3978l13.919 0.56109-0.0492 1.0041-1.0041 3.1303-2.1656 1.6144-3.9867 0.55125m-193.66 0.29531-2.648-0.91547-1.8309-0.91547-1.1222-0.71859 0.19688-1.8309 0.315-1.3289h1.4273l8.3573-0.61031 3.5733-0.12797v0.37297c-4.1442 0.67047-8.2983 1.0205-13.132 1.3694v1.7522c2.4205 1.9698 4.422 2.5681 7.222 2.5681 1.6231 0 3.5142-0.20125 5.9095-0.45281v0.11922l-8.2688 0.71859m-2.1952 68.965-3.1205-2.2739 0.16734-3.0712 0.21656-0.0886 0.4725-0.46266 6.7528-0.25593 5.9752-0.72844-0.01859 0.12797c-3.7953 1.3278-7.9395 1.3289-12.759 1.3289l-0.35438 0.69891c0.79953 2.9236 1.5991 4.2339 6.3842 4.2339 1.5148 0 3.4311-0.13125 5.8712-0.385l-0.69891 0.74812-8.8889 0.12797"/>
     <path d="m222.35 156.38c-2.8055-0.69891-5.9456-0.69891-9.1055-0.69891-3.8489 0-8.0522 0.69891-11.547 0.69891 1.0533-8.0522 0.34453-13.653 3.4945-19.254-2.7956-1.0434-3.4945-3.15-3.4945-5.2467 0-2.1066 1.3978-4.2033 2.0967-5.9555h0.70875c0 1.4076 0.34454 3.8489 1.0434 4.2033 1.7456 1.248 5.9752 1.4273 9.0245 1.4273 1.2327 0 2.2728-0.0295 2.8766-0.0295 3.15 0 6.3 1.3978 6.3 9.1055 0 9.45-1.3978 9.7945-1.3978 15.75m-9.45-6.6544c2.7956 0 5.2467 0 7.6978 0.6989 0-6.6445-0.35438-9.7945-2.4511-11.547-1.7423-1.3978-4.9022-1.3978-10.848-1.3978-1.0533 3.15-1.7522 6.3-1.7522 8.3967 0 0.69891 0.35438 4.2033 0.35438 4.5478 2.0967-0.34453 4.5478-0.6989 6.9989-0.6989m-60.903 6.6544c-3.5044-0.69891-6.6544-0.69891-10.149-0.69891-3.15 0-6.9989 0.34454-10.149 0.69891 0.34453-7.6978 0-14.707 3.8489-19.254-2.7956-1.0434-3.8489-2.7956-3.8489-4.9022 0-2.0967 1.0533-3.8489 2.0967-5.9456h0.6989c0.69891 3.4945 2.1066 4.5478 7.3533 4.9022 6.9989 0.69891 11.901 1.0434 11.901 10.493 0 4.9022-1.7522 9.45-1.7522 14.707m-9.0956-6.3c2.7956 0 4.8923 0.34453 7.3434 0.69891-0.6989-6.6544-0.34453-9.45-1.7522-10.848-1.3978-1.7522-4.1934-1.7522-11.192-2.4511-1.4076 3.4945-2.1066 7.6978-2.1066 13.299 2.4511-0.35438 5.2566-0.69891 7.7077-0.69891m104 3.8161c-0.001-3.5623-0.0536-6.942-0.0536-8.7183 0 1.7762 0.0525 5.1559 0.0536 8.7183m-85.812-11.868h-0.68907c0-1.0533 0-3.15-0.35437-3.5044-0.35438-0.69891-1.0533-2.0967-2.1066-3.4945-1.3978-1.4077-1.7424-3.15-1.7424-4.5478 0-2.1066 2.4511-4.5576 3.4945-6.3098l0.70875 0.35438v3.15c0.68907 2.8055 4.1934 4.2033 4.1934 8.0522 0 1.7522-2.0967 4.2033-3.5044 6.3m71.052-0.6989-1.0434-0.35438c0-1.0434 0-3.8489-0.35438-4.2033-0.34453-0.68906-2.0967-1.7423-2.7956-2.4412-1.3978-1.0533-1.7522-2.8055-1.7522-4.2033 0-2.1066 2.0967-4.5478 3.4945-6.3h0.70875c-0.35437 1.3978-0.70875 2.8055-0.35437 3.5044 0.6989 3.4945 4.9022 2.7956 4.9022 6.6445 0 1.0533-1.7522 4.9022-2.8055 7.3533m-113.05-27.651c-1.0533 0-1.0533-0.6989-0.69891-0.6989 0.69891-1.0533 0.69891-2.1066 0.69891-3.5044s-0.69891-4.1934-0.69891-6.6445c0-2.8055 3.15-5.9555 4.1934-8.0522-2.7956-1.3978-4.1934-3.8489-4.1934-6.3 0-2.0967 0.69891-4.5577 2.7956-5.9456h0.6989c-1.0434 4.1934 2.1066 6.6445 4.2033 6.6445 1.0533-2.4511 2.0967-4.2033 4.1934-6.6445h1.0533c-0.34453 4.5478 1.4077 6.2902 3.5044 7.3434 3.15 1.7522 6.3 2.4511 6.3 6.6445 0 3.5044-1.7522 7.7077-2.4511 10.503-1.3978 4.5478-2.8055 6.3-6.3 6.3-1.0533 0-2.4511-0.34453-4.5478-0.34453-1.0533 0-2.4511 0.34453-3.15 0.34453h-1.0533c1.0533-2.0967 1.3978-3.8489 2.0967-5.9456h5.2566c1.3978 0 3.4945 0 4.1934-0.6989 1.4077-1.0533 2.4511-4.2033 2.4511-5.6011 0-5.2467-6.9989-6.6544-11.202-8.7511-1.3978 2.7956-4.1934 5.6011-4.1934 8.0522 0 1.3978 0.69891 3.4945 0.69891 5.2467 0 4.2033-2.4511 6.3-3.8489 8.0522m21.696-0.35437c0.69891-2.7956 0.69891-4.1934 1.4077-4.8924 0.69891-0.70875 1.3978-0.70875 4.5478-1.7522-0.35437-2.4511-0.35437-4.5577-0.35437-6.3 0-1.7522 0-3.5044 0.6989-5.6011-3.4945-1.0533-3.8489-3.8489-3.8489-6.9989 0-1.3978 0.35437-3.15 0.6989-4.9022h0.69891c1.0533 4.2033 2.4511 5.2467 4.5577 5.2467 1.7423 0 3.4945-0.34453 5.6011-0.34453 1.3978 0 2.7956 0 4.1934 0.69891 3.15 1.7522 0.6989 16.104 3.8489 19.599-0.6989 1.7522-2.0967 3.8489-3.8489 4.9022h-0.69891c0-1.7522 0.35438-5.9555 0.35438-10.149 0-3.8489-0.35438-7.3533-1.7522-8.0522-0.81703-0.35109-1.6341-0.46812-2.4511-0.46812-1.6341 0-3.2681 0.46812-4.9022 0.46812-0.34453 1.0533-1.0533 2.0967-1.0533 3.8489 0 4.2033 2.8055 8.7511 2.8055 10.848 0 2.8055-2.4511 3.8489-10.503 3.8489m72.105-0.34453h-0.6989c-0.35438-2.1066-0.35438-4.2033-0.35438-5.9555 0-4.1934 0.35438-7.6978 0.69891-11.901-5.6011 0-6.9989-1.7423-6.9989-6.3 0-1.3978 0.35438-3.4945 1.0533-5.2467h0.69891c0.34453 0.69891 0.69891 2.0967 1.0533 2.8055 0.34453 1.0434 1.7423 1.7423 3.4945 1.7423 2.4511 0.35438 4.9022 0.35438 4.9022 2.8055 0 3.15-0.69891 4.1934-1.3978 5.5912-0.35438 1.0533-0.70875 2.1066-0.70875 3.1598 0 2.0967 0 5.6011 1.0533 6.9989 0.35437 0.34453 0.35437 0.6989 1.0533 1.0434v0.70875c-1.0533 2.4412-2.4511 3.4945-3.8489 4.5478m-11.901 0h-0.69891c0-1.7522 0.35438-5.9555 0.35438-10.149 0-3.8489-0.35438-5.6011-0.70875-6.3098-0.65188-1.1386-1.8353-1.4416-3.2342-1.4416-1.6002 0-3.4814 0.39812-5.1625 0.39812-2.4511 0-5.6011-2.4511-5.6011-6.6544 0-1.3978 0-3.15 1.0533-4.5478h0.6989c0.69891 2.4511 1.3978 4.2033 3.15 4.2033h6.9989c1.7522 0 3.4945 0.34453 3.8489 1.0434 3.15 5.6011 0.34453 14.707 3.4945 18.555-1.0434 1.7522-2.4412 3.8489-4.1934 4.9022m23.023-0.0263c-1.3366 0-2.7934-0.20563-4.1234-0.32813v-1.0533l2.4511-1.3978c-0.35437-1.7424-0.35437-3.4945-0.35437-4.8924 0-1.7522 0.35437-3.5044 1.7522-4.5576 0.6989-0.69891 1.3978-1.0434 2.8055-1.7423-2.8055-1.7522-5.9555-4.9022-5.9555-9.4598 0-1.7423 0.6989-4.5478 2.4511-5.9456h0.69891c-0.69891 8.0522 6.3 11.202 11.547 13.653 3.8588-5.2566-1.7423-4.9022-1.7423-9.1055 0-1.7423 2.0967-3.8489 3.4945-5.2467l0.69891 0.34453c-0.34453 1.0533-0.34453 1.7522 0 2.8055 0.35437 1.0533 1.7522 1.7522 2.4511 2.0967 0.69891 1.0533 1.0533 2.1066 1.0533 3.15 0 2.8055-2.4511 5.2467-4.2033 6.6544-0.0394-0.03938-0.0613-0.05688-0.0678-0.05688-0.058 0 0.84437 1.1484 1.4656 1.4547 2.4511 1.3978 3.5044 3.5044 3.5044 5.9555 0 2.0967-1.0533 5.2467-3.8489 7.3434h-1.0533c0.69891-1.3978 0.69891-2.7956 0.69891-3.8489 0-4.5478-5.9456-6.9989-10.149-9.0956-0.34453 1.0434-1.7522 2.0967-1.7522 4.1934 0 1.0533 2.8055 3.5044 2.8055 4.9022 0 3.4398-2.0989 4.177-4.6276 4.177m-54.179-0.32813h-1.0434c0.34453-2.7956 0.69891-6.9989 0.69891-10.149 0-2.7956 0.34453-5.2467 0.69891-7.6978-5.9456 0-6.9989-1.3978-6.9989-5.9555 0-1.7423 0.34453-3.4945 0.69891-5.6011h0.6989c0.35438 1.0533 0.69891 2.4511 1.0533 2.8055 0.69891 1.0533 2.0967 1.7522 3.4945 2.0967 2.4511 0.35438 5.2467 0.69891 5.2467 2.4511 0 3.15-1.388 4.5478-1.7423 5.6011 0 1.0533-0.35438 2.4511-0.35438 3.15 0 2.4511 0 5.9555 0.70875 6.9989 0.34454 0.69891 0.69891 1.0533 1.388 1.0533v0.69891c-1.388 2.7956-2.0967 3.4945-4.5478 4.5478"/>
    </g>
   </g>
   <path d="m275.19 173.21c-1.4525 0-3.2769-0.13016-5.588-0.37625l-1.0533-5.9456c2.3417 0.9275 4.9919 1.0817 7.9548 1.0817 1.4711 0 3.0188-0.0383 4.6452-0.0383l0.35438 0.69891c-0.80501 3.2123-1.6045 4.5795-6.3131 4.5795m1.0555-72.26c-2.3625 0-4.9962-0.4025-6.9978-0.56656v-5.6011c3.5044 1.0533 8.0522 1.3978 12.954 1.3978 0 0.34453 0 1.7522-0.35437 2.4511-0.73282 1.8309-3.0024 2.3188-5.6022 2.3188m-191.58 0.60375c-2.8 0-4.8016-0.59828-7.222-2.5681v-1.7522c4.8333-0.34891 8.9873-0.69891 13.132-1.3694v5.2369c-2.3953 0.25156-4.2864 0.45281-5.9095 0.45281m-0.83781 68.859c-4.7852 0-5.5847-1.3103-6.3842-4.2339l0.35438-0.6989c4.8191 0 8.9633-0.001 12.759-1.3289l-0.8575 5.8767c-2.4402 0.25375-4.3564 0.385-5.8712 0.385m97.217 13.63c0-20.308-0.69891-41.304-0.69891-61.957 0-12.6 0.35438-25.2 1.0533-37.101 0.34453-9.7945 2.7956-15.051 8.0522-18.9 3.8489-2.4511 9.7945-2.7956 16.793-2.7956 7.3533 0 14.352 0.69891 20.652 0.69891 7.6978 0 13.998-1.3978 18.9-4.2033h1.0533v85.404c0 1.7762 0.0525 5.1559 0.0536 8.7183 0.002 5.5584-0.12031 11.565-0.76234 12.633-1.388 2.0967-5.2467 2.7956-7.6978 3.4945-7.2319 2.3253-15.227 2.462-22.992 2.462-0.55344 0-1.1058 0-1.657-0.001-0.6836-0.001-1.3672-0.003-2.0453-0.003-13.012 0-24.885 0.52828-30.705 11.55m32.199-28.35c3.1598 0 6.3 0 9.1055 0.69891 0-5.9555 1.3978-6.3 1.3978-15.75 0-7.7077-3.15-9.1055-6.3-9.1055-0.60375 0-1.6439 0.0295-2.8766 0.0295-3.0494 0-7.2789-0.17938-9.0245-1.4273-0.6989-0.35438-1.0434-2.7956-1.0434-4.2033h-0.70875c-0.69891 1.7522-2.0967 3.8489-2.0967 5.9555 0 2.0967 0.6989 4.2033 3.4945 5.2467-3.15 5.6011-2.4412 11.202-3.4945 19.254 3.4945 0 7.6978-0.69891 11.547-0.69891m16.449-31.854c-1.3978 1.7522-3.4945 4.1934-3.4945 6.3 0 1.3978 0.35438 3.15 1.7522 4.2033 0.69891 0.6989 2.4511 1.7522 2.7956 2.4412 0.35438 0.35437 0.35438 3.1598 0.35438 4.2033l1.0434 0.35437c1.0533-2.4511 2.8055-6.3 2.8055-7.3533 0-3.8489-4.2033-3.15-4.9022-6.6445-0.35438-0.69891 0-2.1066 0.35437-3.5044h-0.70875m-23.09-40.244c-0.6989 1.7522-1.0533 3.8489-1.0533 5.2467 0 4.5577 1.3978 6.3 6.9989 6.3-0.34453 4.2033-0.69891 7.7077-0.69891 11.901 0 1.7522 0 3.8489 0.35438 5.9555h0.69891c1.3978-1.0533 2.7956-2.1066 3.8489-4.5478v-0.70875c-0.6989-0.34453-0.6989-0.69891-1.0533-1.0434-1.0533-1.3978-1.0533-4.9022-1.0533-6.9989 0-1.0533 0.35437-2.1066 0.70875-3.1598 0.69891-1.3978 1.3978-2.4412 1.3978-5.5912 0-2.4511-2.4511-2.4511-4.9022-2.8055-1.7522 0-3.15-0.69891-3.4945-1.7423-0.35437-0.70875-0.70875-2.1066-1.0533-2.8055h-0.69891m-9.8886 11.503c1.3989 0 2.5823 0.30297 3.2342 1.4416 0.35438 0.70875 0.70875 2.4609 0.70875 6.3098 0 4.1934-0.35437 8.3967-0.35437 10.149h0.6989c1.7522-1.0533 3.15-3.15 4.1934-4.9022-3.15-3.8489-0.34453-12.954-3.4945-18.555-0.35438-0.69891-2.0967-1.0434-3.8489-1.0434h-6.9989c-1.7522 0-2.4511-1.7522-3.15-4.2033h-0.6989c-1.0533 1.3978-1.0533 3.15-1.0533 4.5478 0 4.2033 3.15 6.6544 5.6011 6.6544 1.6811 0 3.5624-0.39812 5.1625-0.39812m26.338-11.503c-1.7522 1.3978-2.4511 4.2033-2.4511 5.9456 0 4.5577 3.15 7.7077 5.9555 9.4598-1.4077 0.69891-2.1066 1.0434-2.8055 1.7423-1.3978 1.0533-1.7522 2.8055-1.7522 4.5577 0 1.3978 0 3.15 0.35437 4.8923l-2.4511 1.3978v1.0533c1.33 0.1225 2.7869 0.32812 4.1234 0.32812 2.5288 0 4.6277-0.73718 4.6277-4.177 0-1.3978-2.8055-3.8489-2.8055-4.9022 0-2.0967 1.4076-3.15 1.7522-4.1934 4.2033 2.0967 10.149 4.5478 10.149 9.0956 0 1.0533 0 2.4511-0.69891 3.8489h1.0533c2.7956-2.0967 3.8489-5.2467 3.8489-7.3434 0-2.4511-1.0533-4.5577-3.5044-5.9555-0.62125-0.30625-1.5236-1.4547-1.4656-1.4547 0.007 0 0.0284 0.0175 0.0678 0.05688 1.7522-1.4077 4.2033-3.8489 4.2033-6.6544 0-1.0434-0.35438-2.0967-1.0533-3.15-0.6989-0.34453-2.0967-1.0434-2.4511-2.0967-0.34453-1.0533-0.34453-1.7522 0-2.8055l-0.69891-0.34453c-1.3978 1.3978-3.4945 3.5044-3.4945 5.2467 0 4.2033 5.6011 3.8489 1.7424 9.1055-5.2467-2.4511-12.246-5.6011-11.547-13.653h-0.69891m-44.799 100.1c-4.2033-8.7511-13.299-11.547-25.554-11.547-3.8489 0-8.3967 0.6989-13.998 0.6989-10.149 0-23.103-1.7522-25.2-5.9456-0.67047-1.0741-0.88047-3.8402-0.88266-7.1006-0.004-5.2566 0.52828-11.798 0.52828-14.605v-85.05c5.2566 2.4511 8.7511 4.2033 17.502 4.2033 10.848 0 16.104-1.0533 23.802-1.0533 6.6445 0 12.945 0.69891 17.148 4.1934 2.7956 2.1066 4.9022 6.3098 5.9555 10.503 0.78969 3.9648 1.0073 8.7205 1.0084 13.681 0.002 5.9861-0.30953 12.27-0.30953 17.819v74.202m-36.402-27.996c3.4945 0 6.6445 0 10.149 0.69891 0-5.2566 1.7522-9.8044 1.7522-14.707 0-9.45-4.9022-9.7945-11.901-10.493-5.2467-0.35438-6.6544-1.4077-7.3533-4.9022h-0.69891c-1.0434 2.0967-2.0967 3.8489-2.0967 5.9456 0 2.1066 1.0533 3.8588 3.8489 4.9022-3.8489 4.5478-3.5044 11.557-3.8489 19.254 3.15-0.35438 6.9989-0.69891 10.149-0.69891m17.847-31.51c-1.0434 1.7522-3.4945 4.2033-3.4945 6.3098 0 1.3978 0.34454 3.1402 1.7424 4.5478 1.0533 1.3978 1.7522 2.7956 2.1066 3.4945 0.35438 0.35438 0.35438 2.4511 0.35438 3.5044h0.68906c1.4077-2.0967 3.5044-4.5478 3.5044-6.3 0-3.8489-3.5044-5.2467-4.1934-8.0522v-3.15l-0.70875-0.35437m-38.499-41.639c-2.0967 1.388-2.7956 3.8489-2.7956 5.9456 0 2.4511 1.3978 4.9022 4.1934 6.3-1.0434 2.0967-4.1934 5.2467-4.1934 8.0522 0 2.4511 0.69891 5.2467 0.69891 6.6445s0 2.4511-0.69891 3.5044c-0.35437 0-0.35437 0.69891 0.69891 0.69891 1.3978-1.7522 3.8489-3.8489 3.8489-8.0522 0-1.7522-0.69891-3.8489-0.69891-5.2467 0-2.4511 2.7956-5.2566 4.1934-8.0522 4.2033 2.0967 11.202 3.5044 11.202 8.7511 0 1.3978-1.0434 4.5478-2.4511 5.6011-0.6989 0.69891-2.7956 0.69891-4.1934 0.69891h-5.2566c-0.6989 2.0967-1.0434 3.8489-2.0967 5.9456h1.0533c0.6989 0 2.0967-0.34453 3.15-0.34453 2.0967 0 3.4945 0.34453 4.5478 0.34453 3.4945 0 4.9022-1.7522 6.3-6.3 0.6989-2.7956 2.4511-6.9989 2.4511-10.503 0-4.1934-3.15-4.8923-6.3-6.6445-2.0967-1.0533-3.8489-2.7956-3.5044-7.3434h-1.0533c-2.0967 2.4412-3.1402 4.1934-4.1934 6.6445-2.0967 0-5.2467-2.4511-4.2033-6.6445h-0.69891m22.749 0.34453c-0.34454 1.7522-0.69891 3.5044-0.69891 4.9022 0 3.15 0.35437 5.9456 3.8489 6.9989-0.69891 2.0967-0.69891 3.8489-0.69891 5.6011 0 1.7424 0 3.8489 0.35438 6.3-3.15 1.0434-3.8489 1.0434-4.5478 1.7522-0.70875 0.69891-0.70875 2.0967-1.4076 4.8923 8.0522 0 10.503-1.0434 10.503-3.8489 0-2.0967-2.8055-6.6445-2.8055-10.848 0-1.7522 0.70875-2.7956 1.0533-3.8489 1.6341 0 3.2681-0.46812 4.9022-0.46812 0.81703 0 1.6341 0.11703 2.4511 0.46812 1.3978 0.69891 1.7522 4.2033 1.7522 8.0522 0 4.1934-0.35438 8.3967-0.35438 10.149h0.69891c1.7522-1.0533 3.15-3.15 3.8489-4.9022-3.15-3.4945-0.69891-17.847-3.8489-19.599-1.3978-0.69891-2.7956-0.69891-4.1934-0.69891-2.1066 0-3.8588 0.34453-5.6011 0.34453-2.1066 0-3.5044-1.0434-4.5577-5.2467h-0.6989m19.953 0.34453c-0.35438 2.1066-0.69891 3.8588-0.69891 5.6011 0 4.5577 1.0533 5.9555 6.9989 5.9555-0.35438 2.4511-0.69891 4.9022-0.69891 7.6978 0 3.15-0.35437 7.3533-0.6989 10.149h1.0434c2.4511-1.0533 3.1598-1.7522 4.5478-4.5478v-0.69891c-0.68907 0-1.0434-0.35438-1.388-1.0533-0.70875-1.0434-0.70875-4.5478-0.70875-6.9989 0-0.69891 0.35437-2.0967 0.35437-3.15 0.35438-1.0533 1.7424-2.4511 1.7424-5.6011 0-1.7522-2.7956-2.0967-5.2467-2.4511-1.3978-0.34453-2.7956-1.0434-3.4945-2.0967-0.35438-0.35438-0.69891-1.7522-1.0533-2.8055h-0.6989m115.46 82.079c-0.91766 0-1.8802-0.175-2.7562-0.5239 0.69891-6.3 0.69891-13.998 1.0533-19.943 1.3978 1.7423 2.0967 2.7956 2.7956 2.7956s1.3978-1.0533 3.5044-2.4511c-0.6989 6.3-1.0533 13.643-2.1066 19.599-0.69891 0.3489-1.5728 0.5239-2.4905 0.5239m-199.75-2.82c-0.91875 0-1.7948-0.175-2.4938-0.52391-0.69891-5.6011-1.0434-12.954-1.7522-19.609 1.7522 1.7522 2.4511 2.8055 3.15 2.8055 1.0533 0 1.4077-1.0533 3.15-3.15 0.35438 6.3 0.35438 13.653 0.69891 19.953-0.87172 0.34891-1.8331 0.52391-2.753 0.52391m70.655-11.726c-2.4511-0.35437-4.5478-0.6989-7.3434-0.6989-2.4511 0-5.2566 0.34453-7.7077 0.6989 0-5.6011 0.69891-9.8044 2.1066-13.299 6.9989 0.6989 9.7945 0.6989 11.192 2.4511 1.4077 1.3978 1.0533 4.1934 1.7522 10.848m70.353-0.35437c-2.4511-0.69891-4.9022-0.69891-7.6978-0.69891-2.4511 0-4.9022 0.35438-6.9989 0.69891 0-0.34453-0.35438-3.8489-0.35438-4.5478 0-2.0967 0.69891-5.2467 1.7522-8.3967 5.9456 0 9.1055 0 10.848 1.3978 2.0967 1.7522 2.4511 4.9022 2.4511 11.547m-143.85-55.997c-0.69891-6.9989-0.35438-15.396-1.4077-22.749 2.0967 1.3978 2.8055 2.4511 3.15 2.4511 1.0533 0 1.4077-1.3978 3.15-2.7956v18.9c0 0.69891 0.35438 2.4412 0.35438 3.8489-1.3978 0.34453-3.5044 0.34453-5.2467 0.34453m204.4-0.908c-1.4405 0-2.4653-0.32375-3.4902-0.84328 0.41453-4.1552 0.58297-8.8036 0.5775-13.507-0.003-3.2167-0.0886-6.4597-0.23297-9.5867 1.4077 1.7522 2.1066 2.4511 3.15 2.7956 0.69891 0 1.3978-0.69891 2.8055-2.0967-0.35437 6.9989 0 16.449-1.0533 23.103-0.65406 0.09188-1.2326 0.13453-1.7566 0.13453m-100.8 111.52c-4.5478 0-9.45-1.0533-10.848-3.15-1.0533-1.3978-1.0533-4.2033-1.3978-6.3 3.15 2.0967 8.0423 3.4945 11.547 3.4945 4.9022 0 8.7511-1.0434 12.246-3.4945-0.69891 2.4511-1.0434 6.9989-3.15 8.0522-1.7424 1.0434-4.8923 1.3978-8.3967 1.3978" fill="#fff"/>
  </g>
 </g>
</svg>
